<?xml version="1.0" standalone="no"?>
<!DOCTYPE svg PUBLIC "-//W3C//DTD SVG 20010904//EN"
 "http://www.w3.org/TR/2001/REC-SVG-20010904/DTD/svg10.dtd">
<svg version="1.0" xmlns="http://www.w3.org/2000/svg"
 width="280.000000pt" height="280.000000pt" viewBox="0 0 280.000000 280.000000"
 preserveAspectRatio="xMidYMid meet">

<g transform="translate(0.000000,280.000000) scale(0.100000,-0.100000)"
fill="#FFFFFF" stroke="none">
<path d="M1260 2794 c-326 -42 -595 -167 -821 -381 -249 -238 -393 -534 -430
-888 -26 -247 24 -512 142 -748 72 -145 140 -239 264 -363 208 -208 440 -333
731 -391 123 -24 385 -24 509 1 276 55 508 174 707 365 318 304 474 722 429
1146 -38 349 -179 637 -429 876 -194 186 -417 304 -680 359 -95 20 -342 34
-422 24z m-377 -265 c52 -14 112 -71 133 -125 62 -163 -97 -407 -318 -484
-132 -46 -278 -15 -336 73 -24 36 -27 50 -27 121 0 110 30 173 127 271 71 70
142 115 223 141 50 16 147 17 198 3z m961 -680 c67 -25 133 -86 166 -154 35
-71 35 -189 0 -260 -56 -116 -168 -181 -295 -173 -116 8 -202 65 -255 170 -25
51 -30 73 -30 132 0 218 210 362 414 285z m-540 -532 c98 -174 313 -273 506
-233 112 24 175 59 257 143 l72 73 118 -30 c203 -51 473 -144 473 -161 0 -29
-76 -237 -113 -309 -130 -256 -370 -494 -622 -615 -93 -45 -220 -88 -327 -112
-118 -25 -419 -25 -538 1 -275 60 -495 180 -690 375 -158 159 -262 325 -329
526 -47 144 -51 132 59 172 366 133 754 214 1050 222 l55 1 29 -53z"/>
<path d="M1635 1777 c-60 -29 -87 -57 -114 -117 -46 -101 -11 -225 81 -287
184 -122 416 46 355 258 -29 98 -106 158 -212 166 -49 3 -69 0 -110 -20z m214
-30 c22 -15 53 -46 68 -69 24 -36 28 -52 28 -113 0 -61 -4 -77 -28 -113 -74
-113 -225 -136 -323 -49 -120 105 -91 296 56 362 54 24 148 16 199 -18z"/>
</g>
</svg>
